<svg xmlns="http://www.w3.org/2000/svg" viewBox="0 0 290 290.55"><defs><style>.cls-1{fill:none;stroke:#328392;stroke-miterlimit:10;stroke-width:5px;}.cls-2{fill:#328392;}</style></defs><title>Ball2</title><g id="Layer_2" data-name="Layer 2"><g id="Layer_1-2" data-name="Layer 1"><ellipse class="cls-1" cx="145" cy="145.28" rx="142.5" ry="142.78"/><path class="cls-2" d="M240.1,117.37,217.4,78.05l22.69-39.3a142.48,142.48,0,0,0-49.9-29.06l.21.36L167.7,49.37H122.3L99.6,10.05l.21-.36A142.2,142.2,0,0,0,50.69,38.06l22.51,39L50.5,116.37H5.35a143.76,143.76,0,0,0-.3,55.44l0-.07H50.5l22.7,39.31L50.5,250.37H49.21a142.26,142.26,0,0,0,50.6,29.68l-.21-.36,22.7-39.32h45.4l22.7,39.32-.21.36a142.26,142.26,0,0,0,50.6-29.68h-.69l-22.7-39.32,22.7-39.31H285a143.44,143.44,0,0,0-.12-54.37Zm-72.4,66.82H122.3L99.6,144.87l22.7-39.32h45.4l22.7,39.32Z"/></g></g></svg>