<?xml version="1.0" encoding="utf-8"?>
<!-- Generator: Adobe Illustrator 23.0.2, SVG Export Plug-In . SVG Version: 6.00 Build 0)  -->
<svg version="1.1" id="Layer_1" xmlns="http://www.w3.org/2000/svg" xmlns:xlink="http://www.w3.org/1999/xlink" x="0px" y="0px"
	 viewBox="0 0 512 512" style="enable-background:new 0 0 512 512;" xml:space="preserve">
<style type="text/css">
	.st0{fill:#328392;}
</style>
<g>
	<g>
		<path class="st0" d="M190.9,408.4l-61.6-201.1c-3.6-11.5-18.5-17.1-33.6-17.1c-15.2,0-30,5.6-33.6,17.1L0.7,408.4
			C0.3,409.7,0,411.1,0,412c0,12.2,18.8,21.1,33,21.1c8.2,0,14.8-2.6,16.8-9.6L61,382.4h69.6l11.2,41.2c2,6.9,8.6,9.6,16.8,9.6
			c14.2,0,33-8.9,33-21.1C191.5,411.1,191.2,409.7,190.9,408.4z M71.5,342.8l24.1-88.3l24.1,88.3H71.5z"/>
	</g>
</g>
<g>
	<g>
		<path class="st0" d="M376.1,402.5l-40.2-72.8c23.1-8.9,39.9-30,39.9-66.9c0-53.7-35.9-70.5-81.1-70.5h-68.2
			c-9.6,0-15.8,7.3-15.8,15.5v209.6c0,10.5,12.9,15.8,25.7,15.8s25.7-5.3,25.7-15.8v-79.4h21.8l45.2,87.7c3.6,6.9,9.9,9.6,16.5,9.6
			c15.2,0,32.3-13.8,32.3-26.7C377.8,406.8,377.4,404.5,376.1,402.5z M294.7,298.3h-32.6V237h32.6c18.5,0,29.7,7.6,29.7,30.7
			S313.1,298.3,294.7,298.3z"/>
	</g>
</g>
<g>
	<g>
		<path class="st0" d="M495.2,136.5h-42.9V93.6c0-9.3-7.5-16.8-16.8-16.8s-16.8,7.5-16.8,16.8v42.9h-42.9c-9.3,0-16.8,7.5-16.8,16.8
			s7.5,16.8,16.8,16.8h42.9v42.9c0,9.3,7.5,16.8,16.8,16.8s16.8-7.5,16.8-16.8v-42.9h42.9c9.3,0,16.8-7.5,16.8-16.8
			S504.5,136.5,495.2,136.5z"/>
	</g>
</g>
</svg>
