<svg height="512pt" viewBox="0 0 512 512" width="512pt" xmlns="http://www.w3.org/2000/svg"><path d="m512 256c0 141.386719-114.613281 256-256 256s-256-114.613281-256-256 114.613281-256 256-256 256 114.613281 256 256zm0 0" fill="#9331b2"/><path d="m504.171875 192.976562-64.171875-64.175781h-2.34375l-35.382812-37.726562h-26.136719v37.726562h-37.726563v26.140625l37.726563 35.382813v2.34375l127.699219 127.699219c5.324218-20.566407 8.164062-42.136719 8.164062-64.367188 0-21.75-2.722656-42.863281-7.828125-63.023438zm0 0" fill="#5c1b6f"/><path d="m332.191406 168.707031c-7.820312-3.863281-16.367187-5.792969-25.632812-5.792969h-89.5v48.132813l-48.660156-48.132813h-28.386719l-81.679688 205.644532 135.929688 135.929687c19.773437 4.894531 40.449219 7.511719 61.738281 7.511719 114.894531 0 212.109375-75.6875 244.507812-179.925781l-149.03125-149.089844c-5.429687-5.847656-11.855468-10.605469-19.285156-14.277344zm0 0" fill="#5c1b6f"/><path d="m330.019531 290.355469c5.984375-1.925781 11.484375-4.875 16.507813-8.832031 5.019531-3.957032 9.269531-8.640626 12.746094-14.050782 3.476562-5.402344 6.175781-11.292968 8.109374-17.667968 1.929688-6.371094 2.894532-13.03125 2.894532-19.984376 0-8.300781-1.589844-16.460937-4.777344-24.472656-3.1875-8.011718-7.582031-15.160156-13.179688-21.4375-5.601562-6.269531-12.308593-11.339844-20.128906-15.203125-7.820312-3.859375-16.367187-5.792969-25.632812-5.792969h-89.5v123.386719l-48.660156-123.386719h-28.386719l-81.679688 205.644532h34.46875l21.433594-55.898438h79.363281l21.722656 55.898438h34.175782v-71.539063h47.5l44.605468 71.539063h36.785157zm-209.992187-1.738281 34.175781-88.339844 33.019531 88.339844zm198.839844-23.316407c-3.765626 2.027344-7.964844 3.042969-12.597657 3.042969h-56.773437v-76.753906h55.035156c4.246094 0 8.351562 1.011718 12.308594 3.039062 3.957031 2.027344 7.433594 4.78125 10.425781 8.257813 2.992187 3.472656 5.40625 7.527343 7.242187 12.164062 1.835938 4.632813 2.753907 9.558594 2.753907 14.769531 0 5.214844-.773438 10.140626-2.320313 14.773438s-3.667968 8.738281-6.371094 12.308594c-2.707031 3.574218-5.9375 6.371094-9.703124 8.398437zm0 0" fill="#00ffea"/><path d="m330.019531 290.359375c5.980469-1.929687 11.480469-4.878906 16.511719-8.839844 5.019531-3.949219 9.269531-8.640625 12.738281-14.050781 3.480469-5.398438 6.179688-11.289062 8.109375-17.660156 1.929688-6.378906 2.902344-13.039063 2.902344-19.988282 0-8.300781-1.589844-16.460937-4.78125-24.46875-3.191406-8.011718-7.578125-15.160156-13.179688-21.441406-5.601562-6.269531-12.308593-11.339844-20.128906-15.199218-7.820312-3.859376-16.363281-5.800782-25.632812-5.800782h-89.5v205.648438h32.441406v-71.539063h47.5l44.601562 71.539063h36.789063zm-11.148437-25.058594c-3.769532 2.027344-7.972656 3.039063-12.601563 3.039063h-56.769531v-76.75h55.03125c4.25 0 8.347656 1.011718 12.308594 3.039062 3.960937 2.03125 7.429687 4.78125 10.429687 8.25 2.992188 3.480469 5.402344 7.53125 7.242188 12.171875 1.828125 4.628907 2.75 9.558594 2.75 14.769531 0 5.210938-.773438 10.140626-2.320313 14.769532-1.550781 4.640625-3.671875 8.738281-6.371094 12.308594-2.710937 3.582031-5.941406 6.371093-9.699218 8.402343zm0 0" fill="#00ceb4"/><path d="m440 128.800781h-37.726562v-37.726562h-26.136719v37.726562h-37.726563v26.140625h37.726563v37.726563h26.136719v-37.726563h37.726562zm0 0" fill="#ffaa20"/></svg>