<?xml version="1.0" encoding="iso-8859-1"?>
<!-- Generator: Adobe Illustrator 19.0.0, SVG Export Plug-In . SVG Version: 6.00 Build 0)  -->
<svg version="1.1" id="Capa_1" xmlns="http://www.w3.org/2000/svg" xmlns:xlink="http://www.w3.org/1999/xlink" x="0px" y="0px"
	 viewBox="0 0 196.908 196.908" style="enable-background:new 0 0 196.908 196.908;" xml:space="preserve">
<path style="fill:#FFDD95;" d="M98.519,9.637c0,0,15.949-15.949,35.086,3.19c0,0,12.759-3.19,19.137,12.759
	c0,0,28.706,0,25.516,44.655c0,0,19.137,28.706-9.569,47.845c0,0,6.38,25.516-15.949,35.086c0,0,6.38,19.137-12.759,22.327
	c0,0-22.327,38.275-41.465,3.19h-0.13c-19.137,35.086-41.465-3.19-41.465-3.19c-19.137-3.19-12.759-22.327-12.759-22.327
	c-22.327-9.569-15.949-35.086-15.949-35.086c-28.706-19.137-9.569-47.845-9.569-47.845C15.454,25.586,44.16,25.586,44.16,25.586
	c6.38-15.949,19.137-12.759,19.137-12.759c19.137-19.137,35.086-3.19,35.086-3.19L98.519,9.637L98.519,9.637z"/>
<path d="M80.194,196.908c-12.479,0-22.479-13.867-25.38-18.343c-5.746-1.268-9.94-4.041-12.477-8.259
	c-3.227-5.361-2.79-11.633-2.132-15.249c-15.875-8.414-17.469-25.525-15.785-35.465C9.89,108.96,8.12,95.855,9.281,86.562
	c1.026-8.201,4.451-14.734,5.89-17.181c-1.041-17.063,2.34-29.911,10.059-38.2c6.016-6.461,13.044-8.289,16.613-8.805
	C47.283,10.87,56.531,8.642,62.162,9.185c10.53-9.81,20.27-10.044,26.689-8.439c4.233,1.058,7.549,3.04,9.603,4.536
	c2.057-1.495,5.371-3.478,9.603-4.536c6.419-1.601,16.159-1.367,26.689,8.439c5.623-0.541,14.877,1.684,20.32,13.191
	c3.569,0.515,10.597,2.343,16.613,8.805c7.718,8.289,11.1,21.137,10.059,38.2c1.439,2.449,4.866,8.98,5.89,17.181
	c1.162,9.295-0.609,22.398-15.14,33.031c1.684,9.94,0.09,27.051-15.787,35.465c0.659,3.615,1.097,9.888-2.132,15.249
	c-2.538,4.217-6.731,6.99-12.477,8.259c-2.92,4.506-13.049,18.526-25.62,18.342c-6.688-0.096-12.733-4.052-18.019-11.771
	c-5.284,7.721-11.329,11.675-18.019,11.771C80.355,196.908,80.273,196.908,80.194,196.908z M60.484,15.943
	c-3.191,0-9.33,1.364-13.15,10.911c-0.519,1.295-1.773,2.145-3.169,2.145c-0.295,0.003-7.822,0.177-14.041,6.943
	c-6.468,7.037-9.184,18.493-8.071,34.057c0.053,0.754-0.145,1.507-0.565,2.137c-0.696,1.053-16.841,26.134,8.622,43.11
	c1.2,0.8,1.768,2.268,1.418,3.668c-0.225,0.922-5.35,22.837,13.979,31.121c1.633,0.7,2.454,2.533,1.894,4.217
	c-0.02,0.063-2.348,7.38,0.797,12.564c1.688,2.782,4.811,4.572,9.283,5.318c0.998,0.166,1.874,0.77,2.386,1.644
	c2.685,4.582,11.636,16.447,20.477,16.305c5.313-0.082,10.375-4.465,15.044-13.027c0.599-1.097,1.748-1.778,2.997-1.778
	c1.249,0,2.528,0.683,3.127,1.778c4.671,8.562,9.733,12.945,15.044,13.027c0.051,0,0.102,0,0.152,0
	c8.83,0,17.655-11.75,20.325-16.305c0.512-0.874,1.386-1.478,2.386-1.644c4.485-0.748,7.615-2.546,9.3-5.345
	c3.106-5.158,0.806-12.464,0.782-12.537c-0.561-1.684,0.261-3.517,1.894-4.217c19.432-8.327,14.213-30.193,13.981-31.121
	c-0.35-1.399,0.218-2.867,1.418-3.668c10.74-7.159,15.469-16.526,14.056-27.836c-1.084-8.668-5.39-15.21-5.434-15.275
	c-0.42-0.63-0.618-1.382-0.565-2.137c1.111-15.561-1.604-27.02-8.071-34.057c-6.219-6.765-13.745-6.938-14.063-6.943
	c-1.379-0.017-2.635-0.865-3.147-2.145c-5.05-12.624-14.153-10.94-15.172-10.706c-1.15,0.259-2.379-0.075-3.209-0.906
	c-7.031-7.031-14.259-9.677-21.478-7.873c-5.313,1.328-8.747,4.651-8.781,4.685c-0.64,0.64-1.509,1-2.413,1h-0.13
	c-0.905,0-1.773-0.36-2.413-1c-0.024-0.024-3.579-3.463-9.039-4.746C79.8,5.632,72.661,8.299,65.715,15.244
	c-0.848,0.848-2.077,1.188-3.241,0.898C62.235,16.085,61.511,15.943,60.484,15.943z M98.519,9.639h0.017H98.519z"/>
<path style="fill:#FFDD95;" d="M133.475,47.913c0,0,0-15.949,19.137-22.327"/>
<path d="M133.475,51.316c-0.007,0-0.015,0-0.024,0c-1.876-0.012-3.389-1.526-3.389-3.401c0-0.751,0.244-18.49,21.472-25.566
	c1.783-0.594,3.721,0.37,4.318,2.159c0.596,1.789-0.37,3.721-2.159,4.318c-16.427,5.475-16.795,18.558-16.804,19.113
	C136.862,49.804,135.34,51.316,133.475,51.316z"/>
<path style="fill:#FFDD95;" d="M136.664,108.516c0,0,9.762,26.436,31.896,9.569"/>
<path d="M154.658,127.131c-1.71,0-3.391-0.239-5.04-0.719c-11.057-3.215-15.954-16.166-16.157-16.715
	c-0.654-1.768,0.251-3.732,2.019-4.384c1.761-0.655,3.726,0.247,4.381,2.012l0,0c0.038,0.104,3.941,10.308,11.687,12.539
	c4.349,1.253,9.378-0.258,14.94-4.495c1.502-1.143,3.64-0.853,4.784,0.645c1.142,1.498,0.853,3.642-0.645,4.784
	C165.099,125.013,159.747,127.131,154.658,127.131z"/>
<path style="fill:#FFDD95;" d="M120.716,146.792c0,0,3.19-12.759-9.569-25.516"/>
<path d="M120.719,150.205c-0.275,0-0.553-0.034-0.829-0.102c-1.821-0.456-2.932-2.295-2.488-4.118
	c0.118-0.507,2.417-11.215-8.666-22.298c-1.333-1.333-1.333-3.494,0-4.826c1.331-1.333,3.495-1.333,4.826,0
	c13.964,13.964,10.617,28.16,10.467,28.757C123.641,149.169,122.248,150.205,120.719,150.205z"/>
<path style="fill:#FFDD95;" d="M163.312,88.033c0,0-19.185,7.008-29.503-6.724s-8.078-23.566-15.186-24.151"/>
<path d="M152.169,93.262c-6.842,0-15.14-1.988-21.088-9.904c-5.076-6.755-7.286-12.616-8.9-16.894
	c-1.87-4.96-2.408-5.789-3.837-5.905c-1.879-0.155-3.277-1.804-3.121-3.681c0.154-1.879,1.819-3.279,3.681-3.121
	c5.967,0.492,7.762,5.257,9.665,10.3c1.551,4.111,3.48,9.228,7.97,15.203c8.644,11.505,24.919,5.815,25.61,5.567
	c1.77-0.637,3.727,0.278,4.369,2.046c0.642,1.77-0.266,3.724-2.034,4.369C164.051,91.397,158.793,93.262,152.169,93.262z"/>
<path d="M98.389,182.099c-1.884,0-3.413-1.529-3.413-3.413V9.639c0-1.884,1.529-3.413,3.413-3.413c1.884,0,3.413,1.529,3.413,3.413
	v169.049C101.802,180.572,100.273,182.099,98.389,182.099z"/>
<path style="fill:#FFDD95;" d="M119.932,35.683c0,0,0.329,22.552-11.187,37.156"/>
<path d="M108.743,76.25c-0.741,0-1.485-0.239-2.111-0.734c-1.481-1.167-1.734-3.313-0.567-4.794
	c10.643-13.496,10.457-34.778,10.453-34.992c-0.027-1.884,1.478-3.436,3.364-3.463c1.942-0.049,3.436,1.48,3.463,3.364
	c0.014,0.971,0.207,23.941-11.921,39.318C110.752,75.805,109.752,76.25,108.743,76.25z"/>
<path style="fill:#FFDD95;" d="M111.146,162.739c0,0,6.38-19.137,19.137-19.137"/>
<path d="M111.146,166.151c-0.358,0-0.724-0.056-1.082-0.177c-1.787-0.599-2.751-2.528-2.156-4.314
	c0.292-0.877,7.33-21.472,22.376-21.472c1.884,0,3.413,1.529,3.413,3.413c0,1.884-1.529,3.413-3.413,3.413
	c-8.407,0-14.329,12.133-15.901,16.807C113.904,165.249,112.573,166.151,111.146,166.151z"/>
<path d="M123.902,25.81c-0.71,0-1.423-0.218-2.034-0.676c-1.512-1.126-1.826-3.265-0.701-4.775l8.189-11.003
	c1.126-1.514,3.267-1.826,4.775-0.701c1.512,1.126,1.826,3.265,0.701,4.775l-8.189,11.003
	C125.974,25.335,124.945,25.81,123.902,25.81z"/>
<circle style="fill:#26BBEC;" cx="64.252" cy="44.37" r="10.24"/>
<path d="M64.251,58.021c-7.528,0-13.653-6.125-13.653-13.653s6.125-13.653,13.653-13.653c7.528,0,13.653,6.125,13.653,13.653
	S71.779,58.021,64.251,58.021z M64.251,37.541c-3.765,0-6.827,3.062-6.827,6.827c0,3.765,3.062,6.827,6.827,6.827
	c3.765,0,6.827-3.062,6.827-6.827C71.077,40.603,68.015,37.541,64.251,37.541z"/>
<circle style="fill:#26BBEC;" cx="40.359" cy="88.743" r="10.24"/>
<path d="M40.357,102.395c-7.528,0-13.653-6.125-13.653-13.653s6.125-13.653,13.653-13.653s13.653,6.125,13.653,13.653
	S47.885,102.395,40.357,102.395z M40.357,81.915c-3.765,0-6.827,3.062-6.827,6.827c0,3.765,3.062,6.827,6.827,6.827
	c3.765,0,6.827-3.062,6.827-6.827C47.184,84.976,44.122,81.915,40.357,81.915z"/>
<circle style="fill:#26BBEC;" cx="74.492" cy="119.463" r="10.24"/>
<path d="M74.491,133.115c-7.528,0-13.653-6.125-13.653-13.653s6.125-13.653,13.653-13.653s13.653,6.125,13.653,13.653
	S82.019,133.115,74.491,133.115z M74.491,112.635c-3.765,0-6.827,3.062-6.827,6.827c0,3.765,3.062,6.827,6.827,6.827
	c3.765,0,6.827-3.062,6.827-6.827C81.317,115.696,78.255,112.635,74.491,112.635z"/>
<circle style="fill:#26BBEC;" cx="74.492" cy="157.01" r="10.24"/>
<path d="M74.491,170.661c-7.528,0-13.653-6.125-13.653-13.653c0-7.528,6.125-13.653,13.653-13.653s13.653,6.125,13.653,13.653
	C88.144,164.536,82.019,170.661,74.491,170.661z M74.491,150.181c-3.765,0-6.827,3.062-6.827,6.827c0,3.765,3.062,6.827,6.827,6.827
	c3.765,0,6.827-3.062,6.827-6.827C81.317,153.243,78.255,150.181,74.491,150.181z"/>
<path d="M64.251,92.155c-1.884,0-3.413-1.529-3.413-3.413V54.608c0-1.884,1.529-3.413,3.413-3.413c1.884,0,3.413,1.529,3.413,3.413
	v34.133C67.664,90.627,66.136,92.155,64.251,92.155z"/>
<path d="M74.491,92.155H50.597c-1.884,0-3.413-1.529-3.413-3.413c0-1.884,1.529-3.413,3.413-3.413h23.893
	c1.884,0,3.413,1.529,3.413,3.413C77.904,90.626,76.376,92.155,74.491,92.155z"/>
<path d="M74.491,112.635c-1.884,0-3.413-1.529-3.413-3.413v-20.48c0-1.884,1.529-3.413,3.413-3.413c1.884,0,3.413,1.529,3.413,3.413
	v20.48C77.904,111.107,76.376,112.635,74.491,112.635z"/>
<path d="M74.491,150.181c-1.884,0-3.413-1.529-3.413-3.413v-17.067c0-1.884,1.529-3.413,3.413-3.413
	c1.884,0,3.413,1.529,3.413,3.413v17.067C77.904,148.654,76.376,150.181,74.491,150.181z"/>
<g>
</g>
<g>
</g>
<g>
</g>
<g>
</g>
<g>
</g>
<g>
</g>
<g>
</g>
<g>
</g>
<g>
</g>
<g>
</g>
<g>
</g>
<g>
</g>
<g>
</g>
<g>
</g>
<g>
</g>
</svg>
