<?xml version="1.0" encoding="utf-8"?>
<!-- Generator: Adobe Illustrator 23.0.2, SVG Export Plug-In . SVG Version: 6.00 Build 0)  -->
<svg version="1.1" id="Layer_1" xmlns="http://www.w3.org/2000/svg" xmlns:xlink="http://www.w3.org/1999/xlink" x="0px" y="0px"
	 viewBox="0 0 66 82.5" style="enable-background:new 0 0 66 82.5;" xml:space="preserve">
<style type="text/css">
	.st0{fill:#328392;}
</style>
<g>
	<g>
		<circle class="st0" cx="22.9" cy="47.6" r="1.1"/>
	</g>
	<g>
		<circle class="st0" cx="36" cy="30.1" r="1.1"/>
	</g>
	<g>
		<circle class="st0" cx="42.1" cy="37.2" r="1.1"/>
	</g>
	<g>
		<path class="st0" d="M57.3,39.5c6.1-10.2,4.3-22.7-3.9-31l-4.1,4.8c-0.2,0.2-0.5,0.4-0.8,0.4h-4.7c-0.4,1.2-1.6,2.1-2.9,2.1
			c-1.7,0-3.1-1.4-3.1-3.1s1.4-3.1,3.1-3.1c1.3,0,2.5,0.9,2.9,2.1H48l3.8-4.5c-5.7-4.9-13.2-7.1-21-5.8c-6.6,1.2-12.5,5-16.4,10.5
			h7.3c0.2,0,0.4,0.1,0.5,0.2l10.1,6.4c0.5-0.5,1.3-0.8,2-0.8c1.7,0,3.1,1.4,3.1,3.1s-1.4,3.1-3.1,3.1c-1.7,0-3.1-1.4-3.1-3.1
			c0-0.2,0-0.4,0.1-0.5L21.4,14h-8.3c-1,1.7-1.7,3.4-2.3,5.2h9.3c0.4,0,0.7,0.2,0.9,0.5l3.8,6.9c0.2,0,0.4-0.1,0.5-0.1
			c1.7,0,3.1,1.4,3.1,3.1s-1.4,3.1-3.1,3.1s-3.1-1.4-3.1-3.1c0-0.8,0.3-1.5,0.8-2l-3.5-6.4h-9.2c-0.7,3.2-0.8,6.6-0.2,9.9l-5,9.2
			C5,40.6,4.9,40.8,5,41.1s0.3,0.5,0.6,0.6l6.6,2.6v2.4H20c0.4-1.2,1.5-2.1,2.9-2.1c1.7,0,3.1,1.4,3.1,3.1c0,1.7-1.4,3.1-3.1,3.1
			c-1.3,0-2.5-0.9-2.9-2.1h-7.6v3c0,2.8,2.2,5,5,5H23V64c0,0.5,0.4,1,1,1h4.9V47.4c0-0.2,0.1-0.4,0.2-0.6l5.9-7.9v-6
			c-1.2-0.4-2.1-1.6-2.1-2.9c0-1.7,1.4-3.1,3.1-3.1c1.7,0,3.1,1.4,3.1,3.1c0,1.3-0.9,2.5-2.1,2.9v6.3c0,0.2-0.1,0.4-0.2,0.6
			l-5.9,7.9V65h5.9V52.7c0-0.3,0.1-0.5,0.3-0.7l4-3.9v-7.9c-1.2-0.4-2.1-1.6-2.1-2.9c0-1.7,1.4-3.1,3.1-3.1s3.1,1.4,3.1,3.1
			c0,1.3-0.9,2.5-2.1,2.9v8.3c0,0.3-0.1,0.5-0.3,0.7l-4,3.9V65h8.8c0.5,0,1-0.5,1-1V48.2c3.6-2.2,5.4-4.4,7.5-7.1l-10-8.2
			c-0.2-0.2-0.4-0.5-0.4-0.8V22c-1.2-0.4-2.1-1.6-2.1-2.9c0-1.7,1.4-3.1,3.1-3.1c1.7,0,3.1,1.4,3.1,3.1c0,1.3-0.9,2.5-2.1,2.9v9.6
			l2.6,2.1l3-2.2v-4c-1.2-0.4-2.1-1.6-2.1-2.9c0-1.7,1.4-3.1,3.1-3.1c1.7,0,3.1,1.4,3.1,3.1c0,1.3-0.9,2.5-2.1,2.9V32
			c0,0.3-0.2,0.6-0.4,0.8l-3,2.2L57.3,39.5z"/>
	</g>
	<g>
		<path class="st0" d="M26.5,29.5c0-0.6-0.5-1.1-1.1-1.1c-0.2,0-0.3,0-0.5,0.1c0,0,0,0-0.1,0l0,0c-0.3,0.2-0.5,0.5-0.5,0.9
			c0,0.6,0.5,1.1,1.1,1.1S26.5,30.1,26.5,29.5z"/>
	</g>
	<g>
		<circle class="st0" cx="46.8" cy="19.1" r="1.1"/>
	</g>
	<g>
		<path class="st0" d="M54.3,25.8c0.6,0,1.1-0.5,1.1-1.1s-0.5-1.1-1.1-1.1s-1.1,0.5-1.1,1.1S53.7,25.8,54.3,25.8L54.3,25.8
			L54.3,25.8z"/>
	</g>
	<g>
		<circle class="st0" cx="40.9" cy="12.7" r="1.1"/>
	</g>
	<g>
		<path class="st0" d="M35.6,20.7c0-0.6-0.5-1.1-1.1-1.1c-0.7,0-1.1,0.6-1.1,1.1c0,0.6,0.5,1.1,1.1,1.1
			C35.1,21.8,35.6,21.3,35.6,20.7z"/>
	</g>
</g>
</svg>
