<?xml version="1.0" encoding="utf-8"?>
<!-- Generator: Adobe Illustrator 23.0.2, SVG Export Plug-In . SVG Version: 6.00 Build 0)  -->
<svg version="1.1" id="Capa_1" xmlns="http://www.w3.org/2000/svg" xmlns:xlink="http://www.w3.org/1999/xlink" x="0px" y="0px"
	 viewBox="0 0 512 512" style="enable-background:new 0 0 512 512;" xml:space="preserve">
<style type="text/css">
	.st0{fill:#328392;}
</style>
<g>
	<g>
		<path class="st0" d="M438.2,83.7H73.8C33.1,83.7,0,116.8,0,157.5v196.9c0,40.7,33.1,73.8,73.8,73.8h364.3
			c40.7,0,73.8-33.1,73.8-73.8V157.5C512,116.8,478.9,83.7,438.2,83.7z M373.2,303.3c6.5,4.9,7.8,14.2,3,20.7
			c-2.9,3.9-7.3,5.9-11.8,5.9c-3.1,0-6.2-1-8.9-3l-78.8-59.1c-5.1-3.8-7.2-10.5-5.1-16.5c2-6,7.7-10.1,14-10.1h49.2
			c8.1,0,14.8-6.6,14.8-14.8s-6.6-14.8-14.8-14.8H275l-55,110c-2.5,5-7.6,8.2-13.2,8.2s-10.7-3.2-13.2-8.2l-59.1-118.2
			c-3.6-7.3-0.7-16.2,6.6-19.8c7.3-3.7,16.2-0.7,19.8,6.6l45.9,91.7l45.9-91.7c2.5-5,7.6-8.2,13.2-8.2h68.9
			c24.4,0,44.3,19.9,44.3,44.3s-19.9,44.3-44.3,44.3h-4.9L373.2,303.3z"/>
	</g>
</g>
</svg>
