<?xml version="1.0" encoding="iso-8859-1"?>
<!-- Generator: Adobe Illustrator 19.0.0, SVG Export Plug-In . SVG Version: 6.00 Build 0)  -->
<svg version="1.1" id="Capa_1" xmlns="http://www.w3.org/2000/svg" xmlns:xlink="http://www.w3.org/1999/xlink" x="0px" y="0px"
	 viewBox="0 0 512 512" style="enable-background:new 0 0 512 512;" xml:space="preserve">
<g>
	<g>
		<path d="M438.154,83.692H73.846C33.127,83.692,0,116.82,0,157.538v196.923c0,40.719,33.127,73.846,73.846,73.846h364.308
			c40.719,0,73.846-33.127,73.846-73.846V157.538C512,116.82,478.873,83.692,438.154,83.692z M373.169,303.262
			c6.525,4.895,7.848,14.152,2.954,20.677c-2.901,3.869-7.336,5.909-11.827,5.909c-3.084,0-6.193-0.963-8.85-2.955l-78.769-59.077
			c-5.086-3.814-7.159-10.455-5.15-16.485c2.011-6.031,7.654-10.099,14.011-10.099h49.231c8.144,0,14.769-6.625,14.769-14.769
			s-6.625-14.769-14.769-14.769h-59.795L219.98,321.682c-2.502,5.004-7.616,8.164-13.211,8.164s-10.709-3.161-13.21-8.164
			l-59.077-118.154c-3.648-7.295-0.691-16.167,6.605-19.814c7.296-3.651,16.167-0.691,19.814,6.605l45.867,91.734l45.867-91.734
			c2.501-5.004,7.615-8.164,13.21-8.164h68.923c24.431,0,44.308,19.876,44.308,44.308s-19.876,44.308-44.308,44.308h-4.923
			L373.169,303.262z"/>
	</g>
</g>
<g>
</g>
<g>
</g>
<g>
</g>
<g>
</g>
<g>
</g>
<g>
</g>
<g>
</g>
<g>
</g>
<g>
</g>
<g>
</g>
<g>
</g>
<g>
</g>
<g>
</g>
<g>
</g>
<g>
</g>
</svg>
